<?xml version="1.0" encoding="UTF-8"?>
<svg width="251px" height="248px" viewBox="0 0 251 248" version="1.1" xmlns="http://www.w3.org/2000/svg" xmlns:xlink="http://www.w3.org/1999/xlink">
    <!-- Generator: Sketch 50.2 (55047) - http://www.bohemiancoding.com/sketch -->
    <title>Group 4</title>
    <desc>Created with Sketch.</desc>
    <defs>
        <filter x="-3.3%" y="-2.2%" width="106.7%" height="106.9%" filterUnits="objectBoundingBox" id="filter-1">
            <feOffset dx="0" dy="3" in="SourceAlpha" result="shadowOffsetOuter1"></feOffset>
            <feGaussianBlur stdDeviation="2.5" in="shadowOffsetOuter1" result="shadowBlurOuter1"></feGaussianBlur>
            <feColorMatrix values="0 0 0 0 0   0 0 0 0 0   0 0 0 0 0  0 0 0 0.144587862 0" type="matrix" in="shadowBlurOuter1" result="shadowMatrixOuter1"></feColorMatrix>
            <feMerge>
                <feMergeNode in="shadowMatrixOuter1"></feMergeNode>
                <feMergeNode in="SourceGraphic"></feMergeNode>
            </feMerge>
        </filter>
        <linearGradient x1="44.7612884%" y1="65.159237%" x2="-6.93991394%" y2="0%" id="linearGradient-2">
            <stop stop-color="#FFFFFF" stop-opacity="0" offset="0%"></stop>
            <stop stop-color="#FFFFFF" offset="100%"></stop>
        </linearGradient>
        <rect id="path-3" x="13.55651" y="13.7296808" width="207.814926" height="207.737384" rx="62.5"></rect>
        <filter x="-25.0%" y="-25.0%" width="150.0%" height="150.0%" filterUnits="objectBoundingBox" id="filter-5">
            <feGaussianBlur stdDeviation="17.3244322" in="SourceGraphic"></feGaussianBlur>
        </filter>
        <linearGradient x1="50%" y1="0%" x2="50%" y2="100%" id="linearGradient-6">
            <stop stop-color="#ECF6FF" stop-opacity="0.5" offset="1.01442921%"></stop>
            <stop stop-color="#182883" offset="98.7962372%"></stop>
        </linearGradient>
        <rect id="path-7" x="0" y="0" width="207.814926" height="207.737384" rx="62.5"></rect>
        <filter x="-1.2%" y="-1.2%" width="102.4%" height="102.4%" filterUnits="objectBoundingBox" id="filter-8">
            <feGaussianBlur stdDeviation="2.5" in="SourceAlpha" result="shadowBlurInner1"></feGaussianBlur>
            <feOffset dx="0" dy="0" in="shadowBlurInner1" result="shadowOffsetInner1"></feOffset>
            <feComposite in="shadowOffsetInner1" in2="SourceAlpha" operator="arithmetic" k2="-1" k3="1" result="shadowInnerInner1"></feComposite>
            <feColorMatrix values="0 0 0 0 1   0 0 0 0 1   0 0 0 0 1  0 0 0 1 0" type="matrix" in="shadowInnerInner1"></feColorMatrix>
        </filter>
        <filter x="-6.6%" y="-7.8%" width="113.6%" height="110.9%" filterUnits="objectBoundingBox" id="filter-9">
            <feOffset dx="0" dy="-4" in="SourceAlpha" result="shadowOffsetOuter1"></feOffset>
            <feGaussianBlur stdDeviation="2" in="shadowOffsetOuter1" result="shadowBlurOuter1"></feGaussianBlur>
            <feColorMatrix values="0 0 0 0 1   0 0 0 0 1   0 0 0 0 1  0 0 0 1 0" type="matrix" in="shadowBlurOuter1" result="shadowMatrixOuter1"></feColorMatrix>
            <feMerge>
                <feMergeNode in="shadowMatrixOuter1"></feMergeNode>
                <feMergeNode in="SourceGraphic"></feMergeNode>
            </feMerge>
        </filter>
        <linearGradient x1="23.8144184%" y1="116.61407%" x2="61.7474032%" y2="-14.1879667%" id="linearGradient-10">
            <stop stop-color="#000000" stop-opacity="0" offset="0%"></stop>
            <stop stop-color="#000000" offset="100%"></stop>
        </linearGradient>
        <path d="M17.4627064,114.094226 L80.6064319,90.5449299 C100.679249,99.3457775 111.121427,105.797604 111.932965,109.900409 C112.744504,114.003213 110.172912,118.219528 104.218189,122.549353 L24.2744389,153.105919 C16.8647444,155.938095 8.56206739,152.227284 5.72989076,144.817589 C5.10407721,143.180302 4.78324018,141.442293 4.78324018,139.68948 L4.78324018,132.355562 C4.78324018,124.218424 9.83853429,116.937642 17.4627064,114.094226 Z" id="path-11"></path>
        <linearGradient x1="76.758495%" y1="-20.9959891%" x2="28.499244%" y2="112.004069%" id="linearGradient-12">
            <stop stop-color="#000000" stop-opacity="0" offset="0%"></stop>
            <stop stop-color="#000000" offset="100%"></stop>
        </linearGradient>
        <path d="M11.3672204,40.8205011 L16.4306757,31.2506985 L97.1477256,0.956261126 C104.62254,-1.84915977 112.956317,1.93613162 115.761738,9.41094608 C116.371324,11.0351379 116.683585,12.7557918 116.683585,14.49061 L116.683585,21.8245282 C116.683585,29.9616663 111.628291,37.2424477 104.004119,40.0858639 L29.8313413,67.7484176 C20.226144,71.3306522 9.53561814,66.4480762 5.95338355,56.8428788 C5.17953396,54.7679232 4.78324018,52.5712312 4.78324018,50.3566694 L4.78324018,48.8573556 L11.3672204,40.8205011 Z" id="path-13"></path>
    </defs>
    <g id="Page-1" stroke="none" stroke-width="1" fill="none" fill-rule="evenodd">
        <g id="icon_256x256" transform="translate(-2.000000, -5.000000)">
            <g id="Group-4" filter="url(#filter-1)" transform="translate(-13.500000, -3.500000)">
                <g id="Group-2" transform="translate(134.574084, 134.635393) rotate(-9.000000) translate(-134.574084, -134.635393) translate(17.074084, 17.135393)">
                    <mask id="mask-4" fill="white">
                        <use xlink:href="#path-3"></use>
                    </mask>
                    <g id="Rectangle" transform="translate(117.463973, 117.598373) rotate(-8.000000) translate(-117.463973, -117.598373) ">
                        <use fill="#FF7900" fill-rule="evenodd" xlink:href="#path-3"></use>
                        <use fill-opacity="0.400000006" fill="url(#linearGradient-2)" fill-rule="evenodd" style="mix-blend-mode: overlay;" xlink:href="#path-3"></use>
                        <rect stroke-opacity="0.280457428" stroke="#FFE7DB" stroke-width="1" stroke-linejoin="square" x="14.05651" y="14.2296808" width="206.814926" height="206.737384" rx="62.5"></rect>
                    </g>
                    <rect id="Rectangle" fill="#CF0A0A" filter="url(#filter-5)" mask="url(#mask-4)" x="35.7181904" y="2.84015955" width="207.814926" height="207.737384" rx="62.3679559"></rect>
                </g>
                <g id="Group-3" transform="translate(153.663696, 118.358722) rotate(-7.000000) translate(-153.663696, -118.358722) translate(49.663696, 14.358722)">
                    <g id="Rectangle">
                        <use fill="#F4F8FB" fill-rule="evenodd" xlink:href="#path-7"></use>
                        <use fill="url(#linearGradient-6)" fill-rule="evenodd" style="mix-blend-mode: overlay;" xlink:href="#path-7"></use>
                        <use fill="black" fill-opacity="1" filter="url(#filter-8)" xlink:href="#path-7"></use>
                        <rect stroke-opacity="0.573397871" stroke="#FFFFFF" stroke-width="1" stroke-linejoin="square" x="0.5" y="0.5" width="206.814926" height="206.737384" rx="62.5"></rect>
                    </g>
                    <g id="Group" filter="url(#filter-9)" transform="translate(44.106553, 26.778647)">
                        <g id="Rectangle-2">
                            <use fill="#FF7900" xlink:href="#path-11"></use>
                            <use fill-opacity="0.5" fill="url(#linearGradient-10)" style="mix-blend-mode: soft-light;" xlink:href="#path-11"></use>
                        </g>
                        <g id="Rectangle-2">
                            <use fill="#FF7900" xlink:href="#path-13"></use>
                            <use fill-opacity="0.5" fill="url(#linearGradient-12)" style="mix-blend-mode: soft-light;" xlink:href="#path-13"></use>
                        </g>
                        <path d="M35.1113393,46.6678778 C20.2930488,40.5124123 14.0651744,35.3756921 16.4277161,31.2577174 C2.47960728,38.3933398 -2.47151427,50.3632666 1.57435147,67.1674977 C3.0175257,73.1615946 6.7008602,77.2227812 13.1632345,80.2153431 L64.1329962,99.2243896 C64.5659475,99.3858577 64.9943066,99.5201188 65.4179384,99.6283828 L85.5120659,107.122437 C100.330356,113.277903 106.558231,118.414623 104.195689,122.532598 C118.143798,115.396975 123.094919,103.427049 119.049054,86.6228175 C117.60588,80.6287206 113.277318,75.9601029 107.460171,73.5749721 L78.0791412,62.6173898 C77.4683258,62.3895877 76.8663311,62.1905697 76.2732986,62.0191281 L35.1113393,46.6678778 Z" id="Combined-Shape" fill="#FF7900"></path>
                    </g>
                </g>
            </g>
        </g>
    </g>
</svg>